<svg xmlns="http://www.w3.org/2000/svg" width="13" height="13" viewBox="0 0 13 13" fill="none">
  <path d="M1.8125 11.1875H2.5L9.42188 4.26562L8.73438 3.57812L1.8125 10.5V11.1875ZM11.4063 3.59375L9.40625 1.59375L10.0625 0.9375C10.2396 0.760417 10.4583 0.671875 10.7188 0.671875C10.9792 0.671875 11.1979 0.760417 11.375 0.9375L12.0625 1.625C12.2396 1.80208 12.3281 2.02083 12.3281 2.28125C12.3281 2.54167 12.2396 2.76042 12.0625 2.9375L11.4063 3.59375ZM10.75 4.25L2.875 12.125H0.875V10.125L8.75 2.25L10.75 4.25ZM9.07813 3.92188L8.73438 3.57812L9.42188 4.26562L9.07813 3.92188Z" fill="white"/>
</svg>